<svg xmlns="http://www.w3.org/2000/svg" viewBox="0 0 377.83 369.61">
  <defs>
    <style>
      .cls-1{fill:none;stroke:#fff;stroke-miterlimit:10;stroke-width:2.93px;}
    </style>
  </defs>
  <title>
    Asteroid 1
  </title>
  <g id="Layer_2" data-name="Layer 2">
    <g id="Layer_1-2" data-name="Layer 1">
      <path d="M110.9,1.57,65.58,92.77l-44.69,46.8L1.57,225.92l65,92.61,52.93,17.15L162.68,368l76.24-29h59l78.28-107.19q-10.37-27.1-20.74-54.22l10.07-25.82-30.31-50-7.09-42.77L267,19.33Z" class="cls-1"/>
      <polygon points="67.53 121.33 30.67 142.93 22.18 187.22 9.79 223.1 44.7 187.22 44.37 152.81 67.53 121.33" class="cls-1"/>
      <polyline points="65.58 92.77 94.94 86.92 94.94 119.87 59.87 159.22 148.77 159.22 171.69 133.51 171.69 78.51 162.84 68.58 175.85 53.98 183.84 62.95 183.84 89.12 235.22 70.09 312.54 70.09 267.19 32.75 203.25 34.95 186.21 21.04 186.21 10.14" class="cls-1"/>
      <polygon points="242.6 84.68 242.6 104.45 223.79 130.6 188.56 130.6 202.87 144.87 245.25 144.87 254.79 107.42 242.6 84.68" class="cls-1"/>
      <polygon points="210.28 163 183.26 148.44 152.53 172.22 186.21 164.79 210.28 163" class="cls-1"/>
      <polygon points="69.61 217.7 101.14 260.5 73.32 251.58 34.38 268.23 61.13 237.61 69.61 217.7" class="cls-1"/>
      <polygon points="235.19 228.06 208.34 242.96 196.32 229.48 171.75 257.06 131.13 257.06 148.71 276.78 193.9 284.93 235.19 260.44 235.19 228.06" class="cls-1"/>
      <polygon points="325.15 106.03 290.91 156.5 317.76 153.86 334.88 129.75 325.15 106.03" class="cls-1"/>
      <polyline points="329.91 69.72 285.2 118.83 285.2 170.43 320.11 203.57 294.6 259.31 250.97 265.72 199.94 300.37 110.66 280.78 101.14 260.5" class="cls-1"/>
      <path d="M367.68,209.51l-70.87,90.86-61.62,6.4-61.33,24.44-65.33-17.34L66.6,318.53" class="cls-1"/>
    </g>
  </g>
</svg>
