<svg xmlns="http://www.w3.org/2000/svg" viewBox="0 0 385 389.6">
  <defs>
    <style>
      .cls-1{fill:none;stroke:#fff;stroke-miterlimit:10;stroke-width:3.01px;}
    </style>
  </defs>
  <title>
    Asteroid 2
  </title>
  <g id="Layer_2" data-name="Layer 2">
    <g id="Layer_1-2" data-name="Layer 1">
      <path d="M2,182.85,36.3,198.26l24.51-9.32,11.67-26,33.66-12.8,55.63,25L183,127.87l36.26-13.78,21.08-46.94L271.6,55.27l15.33-27.71-35.49-8.69L203.7,1.57l-33,7.68L136.15,27,105.36,55,72.85,59.49Q44.8,104.73,16.76,150Z" class="cls-1"/>
      <path d="M2,182.85q3.36,38.53,6.74,77.06L27,298.11l103.45,55.74,27,4.78,10.89,17.28L197.05,378l38.71,10L266,373.09l71.1-50.66Q345.3,288,353.5,253.57l9-26q10.44-33.47,20.9-66.92L353.08,86.55l-66.15-59" class="cls-1"/>
      <path d="M353.5,253.57l-74.72,73.67-95.92,14L8.73,259.91,5.22,219.78,40.6,258.92l49.72,22.33,58-22,32.87,33,54.1,24.3,62.14-58.14,33.52-74.62,52.47-23" class="cls-1"/>
      <polygon points="222.85 228.75 206.92 264.21 169.03 247.19 199.04 281.76 230.48 295.88 274.03 251.74 234.47 253.74 222.85 228.75" class="cls-1"/>
      <polygon points="340.33 133.47 346.37 149.36 313.9 170.8 292.69 161.28 311.08 120.33 340.33 133.47" class="cls-1"/>
      <polygon points="318.92 93.1 288.13 59.94 254.37 76.41 314.32 103.34 318.92 93.1" class="cls-1"/>
      <polygon points="148.27 195.26 102.94 174.9 60.36 209.07 90.32 222.52 98.34 204.68 148.27 195.26" class="cls-1"/>
      <polygon points="141.35 38.07 113.51 64.97 79.65 69.46 110.17 94.33 135.22 80.96 143.99 56.33 141.35 38.07" class="cls-1"/>
    </g>
  </g>
</svg>
