<svg id="health-meter" xmlns="http://www.w3.org/2000/svg" xmlns:xlink="http://www.w3.org/1999/xlink" viewBox="0 0 304.36 70.66">
  <defs>
    <style>
      .cls-1{fill:none;}.cls-2{fill:url(#Gradient_Orange);}.cls-3{font-size:20px;fill:#252e65;font-family:RobotoMono-MediumItalic, Roboto Mono Medium;font-weight:500;}.cls-3,.cls-4{font-style:italic;}.cls-4{font-size:14.45px;font-family:RobotoMono-BoldItalic, Roboto Mono;font-weight:700;letter-spacing:0.1em;}.cls-4,.cls-7,.cls-9{fill:#fff;}.cls-5{letter-spacing:-0.02em;}.cls-6{letter-spacing:0.1em;}.cls-7{opacity:0.25;}.cls-8{clip-path:url(#clip-path);}
    </style>
    <linearGradient id="Gradient_Orange" x2="304.36" y1="31.92" y2="31.92" gradientUnits="userSpaceOnUse">
      <stop offset="0" stop-color="#ff6f00"/>
      <stop offset="1" stop-color="#ffa800"/>
    </linearGradient>
    <rect id="hm-clip-path" fill="none" stroke="none" />
    <clipPath id="clip">
      <use xlink:href="#hm-clip-path"/>
    </clipPath>
  </defs>
  <title>
    health-meter
  </title>
  <g id="Layer_2" data-name="Layer 2">
    <g id="Health_Meter" data-name="Health Meter">
      <path id="Frame" d="M302,8.4l2.4-8.4H81.6c-5,0-9.45,3.67-11,8.4H18.16a8,8,0,0,0-7.79,6.09L0,56.4H59.36l-2.25,7.43H88.69l1.88-7.43H66.91l13.56-48Z" class="cls-2"/>
      <g width="34" height="22" transform="translate(23, 0)">
        <text id="health-percentage" class="cls-3" text-anchor="middle" transform="translate(15.22 38.97)">
          100%
        </text>
      </g>
      <g id="Health">
        <text id="health-title" class="cls-4" transform="matrix(1, 0, -0.09, 1, 93.89, 66.76)">
          HEA<tspan x="29.79" y="0" class="cls-5">L</tspan><tspan x="37.98" y="0" class="cls-6">TH</tspan>
        </text>
      </g>
      <g id="Active_Segments" data-name="Active Segments" clip-path="url(#clip)">
        <path d="M86.93,15h0a2.77,2.77,0,0,1,2,3.4L80.45,49.05a2.77,2.77,0,0,1-3.4,2h0a2.76,2.76,0,0,1-2-3.39L83.53,17A2.77,2.77,0,0,1,86.93,15Z" class="cls-9"/>
        <path d="M91.61,17,83.17,47.62a2.76,2.76,0,0,0,2,3.39h0a2.77,2.77,0,0,0,3.4-2L97,18.39A2.77,2.77,0,0,0,95,15h0A2.77,2.77,0,0,0,91.61,17Z" class="cls-9"/>
        <path d="M99.69,17,91.25,47.62a2.76,2.76,0,0,0,2,3.39h0a2.77,2.77,0,0,0,3.4-2l8.44-30.66a2.77,2.77,0,0,0-2-3.4h0A2.77,2.77,0,0,0,99.69,17Z" class="cls-9"/>
        <path d="M107.77,17,99.33,47.62a2.76,2.76,0,0,0,2,3.39h0a2.77,2.77,0,0,0,3.4-2l8.45-30.66a2.79,2.79,0,0,0-2-3.4h0A2.77,2.77,0,0,0,107.77,17Z" class="cls-9"/>
        <path d="M115.86,17l-8.45,30.67a2.76,2.76,0,0,0,2,3.39h0a2.77,2.77,0,0,0,3.4-2l8.45-30.66a2.79,2.79,0,0,0-2-3.4h0A2.76,2.76,0,0,0,115.86,17Z" class="cls-9"/>
        <path d="M123.94,17l-8.45,30.67a2.77,2.77,0,0,0,2,3.39h0a2.77,2.77,0,0,0,3.4-2l8.45-30.66a2.78,2.78,0,0,0-2-3.4h0A2.76,2.76,0,0,0,123.94,17Z" class="cls-9"/>
        <path d="M132,17l-8.45,30.67a2.77,2.77,0,0,0,2,3.39h0a2.76,2.76,0,0,0,3.39-2l8.45-30.66a2.78,2.78,0,0,0-2-3.4h0A2.77,2.77,0,0,0,132,17Z" class="cls-9"/>
        <path d="M140.1,17l-8.45,30.67a2.77,2.77,0,0,0,2,3.39h0a2.76,2.76,0,0,0,3.39-2l8.45-30.66a2.77,2.77,0,0,0-2-3.4h0A2.77,2.77,0,0,0,140.1,17Z" class="cls-9"/>
        <path d="M148.18,17l-8.45,30.67a2.77,2.77,0,0,0,2,3.39h0a2.77,2.77,0,0,0,3.4-2l8.44-30.66a2.77,2.77,0,0,0-2-3.4h0A2.77,2.77,0,0,0,148.18,17Z" class="cls-9"/>
        <path d="M156.26,17l-8.44,30.67a2.76,2.76,0,0,0,2,3.39h0a2.77,2.77,0,0,0,3.4-2l8.44-30.66a2.77,2.77,0,0,0-2-3.4h0A2.77,2.77,0,0,0,156.26,17Z" class="cls-9"/>
        <path d="M164.34,17,155.9,47.62a2.76,2.76,0,0,0,2,3.39h0a2.77,2.77,0,0,0,3.4-2l8.44-30.66a2.77,2.77,0,0,0-2-3.4h0A2.77,2.77,0,0,0,164.34,17Z" class="cls-9"/>
        <path d="M172.42,17,164,47.62a2.76,2.76,0,0,0,2,3.39h0a2.77,2.77,0,0,0,3.4-2l8.44-30.66a2.77,2.77,0,0,0-2-3.4h0A2.77,2.77,0,0,0,172.42,17Z" class="cls-9"/>
        <path d="M180.5,17l-8.44,30.67A2.76,2.76,0,0,0,174,51h0a2.77,2.77,0,0,0,3.4-2l8.44-30.66a2.77,2.77,0,0,0-2-3.4h0A2.77,2.77,0,0,0,180.5,17Z" class="cls-9"/>
        <path d="M188.58,17l-8.44,30.67a2.76,2.76,0,0,0,2,3.39h0a2.77,2.77,0,0,0,3.4-2l8.44-30.66a2.77,2.77,0,0,0-2-3.4h0A2.77,2.77,0,0,0,188.58,17Z" class="cls-9"/>
        <path d="M196.66,17l-8.44,30.67a2.76,2.76,0,0,0,2,3.39h0a2.77,2.77,0,0,0,3.4-2L202,18.39a2.77,2.77,0,0,0-2-3.4h0A2.77,2.77,0,0,0,196.66,17Z" class="cls-9"/>
        <path d="M204.74,17,196.3,47.62a2.76,2.76,0,0,0,2,3.39h0a2.77,2.77,0,0,0,3.4-2l8.44-30.66a2.77,2.77,0,0,0-2-3.4h0A2.77,2.77,0,0,0,204.74,17Z" class="cls-9"/>
        <path d="M212.82,17l-8.44,30.67a2.76,2.76,0,0,0,2,3.39h0a2.77,2.77,0,0,0,3.4-2l8.45-30.66a2.79,2.79,0,0,0-2-3.4h0A2.77,2.77,0,0,0,212.82,17Z" class="cls-9"/>
        <path d="M220.91,17l-8.45,30.67a2.76,2.76,0,0,0,2,3.39h0a2.77,2.77,0,0,0,3.4-2l8.45-30.66a2.79,2.79,0,0,0-2-3.4h0A2.76,2.76,0,0,0,220.91,17Z" class="cls-9"/>
        <path d="M229,17l-8.45,30.67a2.77,2.77,0,0,0,2,3.39h0a2.77,2.77,0,0,0,3.4-2l8.45-30.66a2.78,2.78,0,0,0-2-3.4h0A2.76,2.76,0,0,0,229,17Z" class="cls-9"/>
        <path d="M240.47,15h0a2.77,2.77,0,0,0-3.4,2l-8.45,30.67a2.77,2.77,0,0,0,2,3.39h0a2.76,2.76,0,0,0,3.39-2l8.45-30.66A2.78,2.78,0,0,0,240.47,15Z" class="cls-9"/>
        <path d="M236.7,47.62,245.15,17a2.77,2.77,0,0,1,3.4-2h0a2.77,2.77,0,0,1,2,3.4l-8.45,30.66a2.76,2.76,0,0,1-3.39,2h0A2.77,2.77,0,0,1,236.7,47.62Z" class="cls-9"/>
        <path d="M244.78,47.62,253.23,17a2.77,2.77,0,0,1,3.4-2h0a2.77,2.77,0,0,1,2,3.4l-8.44,30.66a2.77,2.77,0,0,1-3.4,2h0A2.77,2.77,0,0,1,244.78,47.62Z" class="cls-9"/>
        <path d="M252.86,47.62,261.31,17a2.77,2.77,0,0,1,3.4-2h0a2.77,2.77,0,0,1,2,3.4l-8.44,30.66a2.77,2.77,0,0,1-3.4,2h0A2.77,2.77,0,0,1,252.86,47.62Z" class="cls-9"/>
        <path d="M261,47.62,269.39,17a2.77,2.77,0,0,1,3.4-2h0a2.77,2.77,0,0,1,2,3.4l-8.44,30.66a2.77,2.77,0,0,1-3.4,2h0A2.76,2.76,0,0,1,261,47.62Z" class="cls-9"/>
        <path d="M269,47.62,277.47,17a2.77,2.77,0,0,1,3.4-2h0a2.77,2.77,0,0,1,2,3.4l-8.44,30.66a2.77,2.77,0,0,1-3.4,2h0A2.76,2.76,0,0,1,269,47.62Z" class="cls-9"/>
        <path d="M277.11,47.62,285.55,17a2.77,2.77,0,0,1,3.4-2h0a2.77,2.77,0,0,1,2,3.4l-8.44,30.66a2.77,2.77,0,0,1-3.4,2h0A2.76,2.76,0,0,1,277.11,47.62Z" class="cls-9"/>
        <path d="M285.19,47.62,293.63,17a2.77,2.77,0,0,1,3.4-2h0a2.77,2.77,0,0,1,2,3.4l-8.44,30.66a2.77,2.77,0,0,1-3.4,2h0A2.76,2.76,0,0,1,285.19,47.62Z" class="cls-9"/>
      </g>
      <g id="Inactive_Segments" data-name="Inactive Segments">
        <path d="M86.93,15h0a2.77,2.77,0,0,1,2,3.4L80.45,49.05a2.77,2.77,0,0,1-3.4,2h0a2.76,2.76,0,0,1-2-3.39L83.53,17A2.77,2.77,0,0,1,86.93,15Z" class="cls-7"/>
        <path d="M91.61,17,83.17,47.62a2.76,2.76,0,0,0,2,3.39h0a2.77,2.77,0,0,0,3.4-2L97,18.39A2.77,2.77,0,0,0,95,15h0A2.77,2.77,0,0,0,91.61,17Z" class="cls-7"/>
        <path d="M99.69,17,91.25,47.62a2.76,2.76,0,0,0,2,3.39h0a2.77,2.77,0,0,0,3.4-2l8.44-30.66a2.77,2.77,0,0,0-2-3.4h0A2.77,2.77,0,0,0,99.69,17Z" class="cls-7"/>
        <path d="M107.77,17,99.33,47.62a2.76,2.76,0,0,0,2,3.39h0a2.77,2.77,0,0,0,3.4-2l8.45-30.66a2.79,2.79,0,0,0-2-3.4h0A2.77,2.77,0,0,0,107.77,17Z" class="cls-7"/>
        <path d="M115.86,17l-8.45,30.67a2.76,2.76,0,0,0,2,3.39h0a2.77,2.77,0,0,0,3.4-2l8.45-30.66a2.79,2.79,0,0,0-2-3.4h0A2.76,2.76,0,0,0,115.86,17Z" class="cls-7"/>
        <path d="M123.94,17l-8.45,30.67a2.77,2.77,0,0,0,2,3.39h0a2.77,2.77,0,0,0,3.4-2l8.45-30.66a2.78,2.78,0,0,0-2-3.4h0A2.76,2.76,0,0,0,123.94,17Z" class="cls-7"/>
        <path d="M132,17l-8.45,30.67a2.77,2.77,0,0,0,2,3.39h0a2.76,2.76,0,0,0,3.39-2l8.45-30.66a2.78,2.78,0,0,0-2-3.4h0A2.77,2.77,0,0,0,132,17Z" class="cls-7"/>
        <path d="M140.1,17l-8.45,30.67a2.77,2.77,0,0,0,2,3.39h0a2.76,2.76,0,0,0,3.39-2l8.45-30.66a2.77,2.77,0,0,0-2-3.4h0A2.77,2.77,0,0,0,140.1,17Z" class="cls-7"/>
        <path d="M148.18,17l-8.45,30.67a2.77,2.77,0,0,0,2,3.39h0a2.77,2.77,0,0,0,3.4-2l8.44-30.66a2.77,2.77,0,0,0-2-3.4h0A2.77,2.77,0,0,0,148.18,17Z" class="cls-7"/>
        <path d="M156.26,17l-8.44,30.67a2.76,2.76,0,0,0,2,3.39h0a2.77,2.77,0,0,0,3.4-2l8.44-30.66a2.77,2.77,0,0,0-2-3.4h0A2.77,2.77,0,0,0,156.26,17Z" class="cls-7"/>
        <path d="M164.34,17,155.9,47.62a2.76,2.76,0,0,0,2,3.39h0a2.77,2.77,0,0,0,3.4-2l8.44-30.66a2.77,2.77,0,0,0-2-3.4h0A2.77,2.77,0,0,0,164.34,17Z" class="cls-7"/>
        <path d="M172.42,17,164,47.62a2.76,2.76,0,0,0,2,3.39h0a2.77,2.77,0,0,0,3.4-2l8.44-30.66a2.77,2.77,0,0,0-2-3.4h0A2.77,2.77,0,0,0,172.42,17Z" class="cls-7"/>
        <path d="M180.5,17l-8.44,30.67A2.76,2.76,0,0,0,174,51h0a2.77,2.77,0,0,0,3.4-2l8.44-30.66a2.77,2.77,0,0,0-2-3.4h0A2.77,2.77,0,0,0,180.5,17Z" class="cls-7"/>
        <path d="M188.58,17l-8.44,30.67a2.76,2.76,0,0,0,2,3.39h0a2.77,2.77,0,0,0,3.4-2l8.44-30.66a2.77,2.77,0,0,0-2-3.4h0A2.77,2.77,0,0,0,188.58,17Z" class="cls-7"/>
        <path d="M196.66,17l-8.44,30.67a2.76,2.76,0,0,0,2,3.39h0a2.77,2.77,0,0,0,3.4-2L202,18.39a2.77,2.77,0,0,0-2-3.4h0A2.77,2.77,0,0,0,196.66,17Z" class="cls-7"/>
        <path d="M204.74,17,196.3,47.62a2.76,2.76,0,0,0,2,3.39h0a2.77,2.77,0,0,0,3.4-2l8.44-30.66a2.77,2.77,0,0,0-2-3.4h0A2.77,2.77,0,0,0,204.74,17Z" class="cls-7"/>
        <path d="M212.82,17l-8.44,30.67a2.76,2.76,0,0,0,2,3.39h0a2.77,2.77,0,0,0,3.4-2l8.45-30.66a2.79,2.79,0,0,0-2-3.4h0A2.77,2.77,0,0,0,212.82,17Z" class="cls-7"/>
        <path d="M220.91,17l-8.45,30.67a2.76,2.76,0,0,0,2,3.39h0a2.77,2.77,0,0,0,3.4-2l8.45-30.66a2.79,2.79,0,0,0-2-3.4h0A2.76,2.76,0,0,0,220.91,17Z" class="cls-7"/>
        <path d="M229,17l-8.45,30.67a2.77,2.77,0,0,0,2,3.39h0a2.77,2.77,0,0,0,3.4-2l8.45-30.66a2.78,2.78,0,0,0-2-3.4h0A2.76,2.76,0,0,0,229,17Z" class="cls-7"/>
        <path d="M240.47,15h0a2.77,2.77,0,0,0-3.4,2l-8.45,30.67a2.77,2.77,0,0,0,2,3.39h0a2.76,2.76,0,0,0,3.39-2l8.45-30.66A2.78,2.78,0,0,0,240.47,15Z" class="cls-7"/>
        <path d="M236.7,47.62,245.15,17a2.77,2.77,0,0,1,3.4-2h0a2.77,2.77,0,0,1,2,3.4l-8.45,30.66a2.76,2.76,0,0,1-3.39,2h0A2.77,2.77,0,0,1,236.7,47.62Z" class="cls-7"/>
        <path d="M244.78,47.62,253.23,17a2.77,2.77,0,0,1,3.4-2h0a2.77,2.77,0,0,1,2,3.4l-8.44,30.66a2.77,2.77,0,0,1-3.4,2h0A2.77,2.77,0,0,1,244.78,47.62Z" class="cls-7"/>
        <path d="M252.86,47.62,261.31,17a2.77,2.77,0,0,1,3.4-2h0a2.77,2.77,0,0,1,2,3.4l-8.44,30.66a2.77,2.77,0,0,1-3.4,2h0A2.77,2.77,0,0,1,252.86,47.62Z" class="cls-7"/>
        <path d="M261,47.62,269.39,17a2.77,2.77,0,0,1,3.4-2h0a2.77,2.77,0,0,1,2,3.4l-8.44,30.66a2.77,2.77,0,0,1-3.4,2h0A2.76,2.76,0,0,1,261,47.62Z" class="cls-7"/>
        <path d="M269,47.62,277.47,17a2.77,2.77,0,0,1,3.4-2h0a2.77,2.77,0,0,1,2,3.4l-8.44,30.66a2.77,2.77,0,0,1-3.4,2h0A2.76,2.76,0,0,1,269,47.62Z" class="cls-7"/>
        <path d="M277.11,47.62,285.55,17a2.77,2.77,0,0,1,3.4-2h0a2.77,2.77,0,0,1,2,3.4l-8.44,30.66a2.77,2.77,0,0,1-3.4,2h0A2.76,2.76,0,0,1,277.11,47.62Z" class="cls-7"/>
        <path d="M285.19,47.62,293.63,17a2.77,2.77,0,0,1,3.4-2h0a2.77,2.77,0,0,1,2,3.4l-8.44,30.66a2.77,2.77,0,0,1-3.4,2h0A2.76,2.76,0,0,1,285.19,47.62Z" class="cls-7"/>
      </g>
    </g>
  </g>
</svg>
