<svg id="tensorflow-logo" xmlns="http://www.w3.org/2000/svg" xmlns:xlink="http://www.w3.org/1999/xlink" viewBox="0 0 432.46 79.66">
  <defs>
    <style>
      .cls-1{fill:none;}.cls-2{clip-path:url(#clip-path);}.cls-3{fill:#fff;}.cls-4{clip-path:url(#clip-path-2);}
    </style>
    <clipPath id="clip-path">
      <polygon points="74.42 19.63 40.58 0.29 40.58 79.56 54.1 71.7 54.1 49.4 64.31 55.31 64.26 40.06 54.1 34.26 54.1 25.4 74.47 37.17 74.42 19.63" class="cls-1"/>
    </clipPath>
    <clipPath id="clip-path-2">
      <polygon points="3.69 19.63 37.54 0.29 37.54 79.56 24.02 71.7 24.02 25.4 3.64 37.17 3.69 19.63" class="cls-1"/>
    </clipPath>
  </defs>
  <title>
    Tensorflow
  </title>
  <g id="Layer_2" data-name="Layer 2">
    <g id="Branding">
      <g class="cls-2">
        <path d="M.56,0H83.68V79.66H.56Z" class="cls-3"/>
      </g>
      <g class="cls-4">
        <path d="M0,0H83.12V79.66H0Z" class="cls-3"/>
      </g>
      <path d="M135.85,24.87H120.7V66.64h-8.37V24.87h-15v-6.8h38.53Z" class="cls-3"/>
      <path d="M145.9,67.31a16.81,16.81,0,0,1-12.49-4.86q-4.82-4.86-4.83-12.93v-1a21.76,21.76,0,0,1,2.09-9.66,15.9,15.9,0,0,1,5.85-6.63A15.47,15.47,0,0,1,145,29.88q7.36,0,11.39,4.69c2.69,3.14,4,7.57,4,13.32v3.27H136.79a10.85,10.85,0,0,0,3,7.07,9,9,0,0,0,6.59,2.6,11,11,0,0,0,9.1-4.5l4.37,4.17a14.71,14.71,0,0,1-5.79,5,18.18,18.18,0,0,1-8.14,1.79Zm-1-30.93a6.81,6.81,0,0,0-5.37,2.3,12.06,12.06,0,0,0-2.62,6.51h15.45v-.57a9.85,9.85,0,0,0-2.17-6.14,6.78,6.78,0,0,0-5.29-2.1Z" class="cls-3"/>
      <path d="M174.18,30.54l.23,4.17a13,13,0,0,1,10.52-4.83q11.26,0,11.47,12.9V66.64h-8.1V43.25a7.41,7.41,0,0,0-1.49-5.08q-1.49-1.66-4.86-1.66a7.81,7.81,0,0,0-7.3,4.44V66.64h-8.11V30.55Z" class="cls-3"/>
      <path d="M222.7,56.83a3.69,3.69,0,0,0-1.78-3.31,19.13,19.13,0,0,0-5.93-2,30.59,30.59,0,0,1-6.91-2.21Q202,46.38,202,40.82A9.59,9.59,0,0,1,206,33a15.51,15.51,0,0,1,10-3.13q6.47,0,10.46,3.2a10.17,10.17,0,0,1,4,8.3H222.3a5,5,0,0,0-1.73-3.88A6.68,6.68,0,0,0,216,36a7.28,7.28,0,0,0-4.35,1.23,3.94,3.94,0,0,0-1.69,3.3,3.31,3.31,0,0,0,1.54,2.91,21.22,21.22,0,0,0,6.34,2.08A30,30,0,0,1,225.29,48a10.7,10.7,0,0,1,4,3.48,9,9,0,0,1,1.31,4.94,9.42,9.42,0,0,1-4,7.89q-4,3-10.58,3a18.66,18.66,0,0,1-7.9-1.6,13.18,13.18,0,0,1-5.38-4.4,10.49,10.49,0,0,1-1.93-6h7.87a5.76,5.76,0,0,0,2.17,4.43,8.46,8.46,0,0,0,5.31,1.53A8.16,8.16,0,0,0,221,60,3.75,3.75,0,0,0,222.7,56.83Z" class="cls-3"/>
      <path d="M234.85,48.26a21.34,21.34,0,0,1,2.09-9.56,15.44,15.44,0,0,1,5.91-6.54,16.68,16.68,0,0,1,8.74-2.31,15.79,15.79,0,0,1,11.86,4.7Q268,39.25,268.37,47v1.9a21.45,21.45,0,0,1-2.05,9.55,15.18,15.18,0,0,1-5.87,6.5,16.69,16.69,0,0,1-8.83,2.3q-7.62,0-12.22-5.09t-4.61-13.56Zm8.1.7q0,5.57,2.3,8.72a7.47,7.47,0,0,0,6.41,3.15,7.39,7.39,0,0,0,6.38-3.2c1.54-2.13,2.31-5.26,2.31-9.37,0-3.65-.79-6.54-2.35-8.68a7.51,7.51,0,0,0-6.39-3.2,7.41,7.41,0,0,0-6.3,3.15C243.75,41.63,243,44.78,243,49Z" class="cls-3"/>
      <path d="M292.79,37.94a21.52,21.52,0,0,0-3.31-.26c-3.7,0-6.2,1.43-7.5,4.27V66.64h-8.1V30.55h7.73l.2,4a9.14,9.14,0,0,1,8.14-4.7,7.56,7.56,0,0,1,2.87.47Z" class="cls-3"/>
      <path d="M326.68,46.05H307.14V66.64h-8.45V18.07h30.85v6.8h-22.4V39.31h19.54Z" class="cls-3"/>
      <path d="M342.69,66.64h-8.1V18h8.1Z" class="cls-3"/>
      <path d="M348.64,48.26a21.08,21.08,0,0,1,2.1-9.56,15.36,15.36,0,0,1,5.9-6.54,16.68,16.68,0,0,1,8.74-2.31,15.79,15.79,0,0,1,11.86,4.7q4.54,4.7,4.92,12.48v1.9a21.43,21.43,0,0,1-2.06,9.55,15.18,15.18,0,0,1-5.87,6.5,16.74,16.74,0,0,1-8.82,2.3q-7.68,0-12.23-5.09t-4.61-13.56Zm8.1.7q0,5.57,2.31,8.72a7.48,7.48,0,0,0,6.41,3.15,7.41,7.41,0,0,0,6.39-3.2c1.53-2.13,2.3-5.26,2.3-9.37q0-5.48-2.35-8.68a7.93,7.93,0,0,0-12.69,0c-1.59,2.1-2.37,5.25-2.37,9.43Z" class="cls-3"/>
      <path d="M418.81,55.46l5.74-24.92h7.91l-9.85,36.09h-6.67L408.2,41.85l-7.6,24.78h-6.67l-9.88-36.09h7.89l5.84,24.65,7.4-24.65h6.1Z" class="cls-3"/>
    </g>
  </g>
</svg>
